<?xml version="1.0" encoding="us-ascii" standalone="no"?><svg xmlns="http://www.w3.org/2000/svg" xmlns:xlink="http://www.w3.org/1999/xlink" contentStyleType="text/css" height="725px" preserveAspectRatio="none" style="width:1114px;height:725px;background:#FFFFFF;" version="1.1" viewBox="0 0 1114 725" width="1114px" zoomAndPan="magnify"><defs/><g><ellipse cx="639.875" cy="20" fill="#222222" rx="10" ry="10" style="stroke:#222222;stroke-width:1.0;"/><rect fill="#F1F1F1" height="35.0938" rx="12.5" ry="12.5" style="stroke:#181818;stroke-width:0.5;" width="237" x="521.375" y="50"/><text fill="#000000" font-family="sans-serif" font-size="12" lengthAdjust="spacing" textLength="217" x="531.375" y="72.457">Checkout Common-SSO IAC main repo</text><rect fill="#F1F1F1" height="35.0938" rx="12.5" ry="12.5" style="stroke:#181818;stroke-width:0.5;" width="266" x="506.875" y="105.0938"/><text fill="#000000" font-family="sans-serif" font-size="12" lengthAdjust="spacing" textLength="246" x="516.875" y="127.5508">Setup Terraform (retrieves the Terraform CLI)</text><rect fill="#F1F1F1" height="35.0938" rx="12.5" ry="12.5" style="stroke:#181818;stroke-width:0.5;" width="300" x="489.875" y="160.1875"/><text fill="#000000" font-family="sans-serif" font-size="12" lengthAdjust="spacing" textLength="280" x="499.875" y="182.6445">Add/Update Terrform Resource(client, realm or idp)</text><rect fill="#F1F1F1" height="35.0938" rx="12.5" ry="12.5" style="stroke:#181818;stroke-width:0.5;" width="298" x="490.875" y="215.2813"/><text fill="#000000" font-family="sans-serif" font-size="12" lengthAdjust="spacing" textLength="278" x="500.875" y="237.7383">Terraform Format (checks configuration formatting)</text><rect fill="#F1F1F1" height="35.0938" rx="12.5" ry="12.5" style="stroke:#181818;stroke-width:0.5;" width="249" x="515.375" y="270.375"/><text fill="#000000" font-family="sans-serif" font-size="12" lengthAdjust="spacing" textLength="229" x="525.375" y="292.832">Terraform Init (initializes the configuration)</text><rect fill="#F1F1F1" height="35.0938" rx="12.5" ry="12.5" style="stroke:#181818;stroke-width:0.5;" width="275" x="502.375" y="325.4688"/><text fill="#000000" font-family="sans-serif" font-size="12" lengthAdjust="spacing" textLength="255" x="512.375" y="347.9258">Terraform Validate (validates the configuration)</text><rect fill="#F1F1F1" height="35.0938" rx="12.5" ry="12.5" style="stroke:#181818;stroke-width:0.5;" width="212" x="533.875" y="380.5625"/><text fill="#000000" font-family="sans-serif" font-size="12" lengthAdjust="spacing" textLength="192" x="543.875" y="403.0195">Submit your change request via PR</text><polygon fill="#F1F1F1" points="607.375,435.6563,672.375,435.6563,684.375,447.6563,672.375,459.6563,607.375,459.6563,595.375,447.6563,607.375,435.6563" style="stroke:#181818;stroke-width:0.5;"/><text fill="#000000" font-family="sans-serif" font-size="11" lengthAdjust="spacing" textLength="65" x="607.375" y="452.1572">Pull Request?</text><text fill="#000000" font-family="sans-serif" font-size="11" lengthAdjust="spacing" textLength="18" x="577.375" y="445.2393">yes</text><text fill="#000000" font-family="sans-serif" font-size="11" lengthAdjust="spacing" textLength="12" x="684.375" y="445.2393">no</text><rect fill="#F1F1F1" height="35.0938" rx="12.5" ry="12.5" style="stroke:#181818;stroke-width:0.5;" width="263" x="218.75" y="469.6563"/><text fill="#000000" font-family="sans-serif" font-size="12" lengthAdjust="spacing" textLength="243" x="228.75" y="492.1133">Terraform Plan (generates a Terraform plan)</text><polygon fill="#F1F1F1" points="297.25,539.75,403.25,539.75,415.25,551.75,403.25,563.75,297.25,563.75,285.25,551.75,297.25,539.75" style="stroke:#181818;stroke-width:0.5;"/><text fill="#000000" font-family="sans-serif" font-size="11" lengthAdjust="spacing" textLength="106" x="297.25" y="556.251">Plan Status Success?</text><text fill="#000000" font-family="sans-serif" font-size="11" lengthAdjust="spacing" textLength="18" x="267.25" y="549.333">yes</text><text fill="#000000" font-family="sans-serif" font-size="11" lengthAdjust="spacing" textLength="12" x="415.25" y="549.333">no</text><rect fill="#F1F1F1" height="35.0938" rx="12.5" ry="12.5" style="stroke:#181818;stroke-width:0.5;" width="321" x="11" y="573.75"/><text fill="#000000" font-family="sans-serif" font-size="12" lengthAdjust="spacing" textLength="301" x="21" y="596.207">Update Pull Request (adds comment with plan results)</text><ellipse cx="171.5" cy="653.8438" fill="none" rx="10" ry="10" style="stroke:#222222;stroke-width:1.5;"/><line style="stroke:#222222;stroke-width:2.5;" x1="165.3128" x2="177.6872" y1="647.6566" y2="660.0309"/><line style="stroke:#222222;stroke-width:2.5;" x1="177.6872" x2="165.3128" y1="647.6566" y2="660.0309"/><rect fill="#F1F1F1" height="35.0938" rx="12.5" ry="12.5" style="stroke:#181818;stroke-width:0.5;" width="354" x="352" y="573.75"/><text fill="#000000" font-family="sans-serif" font-size="12" lengthAdjust="spacing" textLength="334" x="362" y="596.207">Update Pull Request (adds comment with failed plan results)</text><ellipse cx="529" cy="654.8438" fill="none" rx="11" ry="11" style="stroke:#222222;stroke-width:1.0;"/><ellipse cx="529" cy="654.8438" fill="#222222" rx="6" ry="6" style="stroke:#222222;stroke-width:1.0;"/><rect fill="#F1F1F1" height="35.0938" rx="12.5" ry="12.5" style="stroke:#181818;stroke-width:0.5;" width="279" x="790" y="518.5742"/><text fill="#000000" font-family="sans-serif" font-size="12" lengthAdjust="spacing" textLength="259" x="800" y="541.0313">Terraform Apply (applies the plan configuration)</text><rect fill="#F1F1F1" height="35.0938" rx="12.5" ry="12.5" style="stroke:#181818;stroke-width:0.5;" width="347" x="756" y="637.5859"/><text fill="#000000" font-family="sans-serif" font-size="12" lengthAdjust="spacing" textLength="327" x="766" y="660.043">Terraform Destroy (rollback the plan to minio previous state)</text><ellipse cx="929.5" cy="703.6797" fill="none" rx="11" ry="11" style="stroke:#222222;stroke-width:1.0;"/><ellipse cx="929.5" cy="703.6797" fill="#222222" rx="6" ry="6" style="stroke:#222222;stroke-width:1.0;"/><polygon fill="#F1F1F1" points="889.5,588.668,969.5,588.668,981.5,600.668,969.5,612.668,889.5,612.668,877.5,600.668,889.5,588.668" style="stroke:#181818;stroke-width:0.5;"/><text fill="#000000" font-family="sans-serif" font-size="11" lengthAdjust="spacing" textLength="12" x="933.5" y="624.0869">no</text><text fill="#000000" font-family="sans-serif" font-size="11" lengthAdjust="spacing" textLength="80" x="889.5" y="605.1689">Apply Success?</text><text fill="#000000" font-family="sans-serif" font-size="11" lengthAdjust="spacing" textLength="18" x="981.5" y="598.251">yes</text><ellipse cx="1021.5" cy="600.668" fill="none" rx="11" ry="11" style="stroke:#222222;stroke-width:1.0;"/><ellipse cx="1021.5" cy="600.668" fill="#222222" rx="6" ry="6" style="stroke:#222222;stroke-width:1.0;"/><polygon fill="#F1F1F1" points="896,469.6563,963,469.6563,975,481.6563,963,493.6563,896,493.6563,884,481.6563,896,469.6563" style="stroke:#181818;stroke-width:0.5;"/><text fill="#000000" font-family="sans-serif" font-size="11" lengthAdjust="spacing" textLength="18" x="933.5" y="505.0752">yes</text><text fill="#000000" font-family="sans-serif" font-size="11" lengthAdjust="spacing" textLength="67" x="896" y="486.1572">Push to Main?</text><text fill="#000000" font-family="sans-serif" font-size="11" lengthAdjust="spacing" textLength="12" x="975" y="479.2393">no</text><ellipse cx="1009" cy="481.6563" fill="none" rx="11" ry="11" style="stroke:#222222;stroke-width:1.0;"/><ellipse cx="1009" cy="481.6563" fill="#222222" rx="6" ry="6" style="stroke:#222222;stroke-width:1.0;"/><line style="stroke:#181818;stroke-width:1.0;" x1="639.875" x2="639.875" y1="30" y2="50"/><polygon fill="#181818" points="635.875,40,639.875,50,643.875,40,639.875,44" style="stroke:#181818;stroke-width:1.0;"/><line style="stroke:#181818;stroke-width:1.0;" x1="639.875" x2="639.875" y1="85.0938" y2="105.0938"/><polygon fill="#181818" points="635.875,95.0938,639.875,105.0938,643.875,95.0938,639.875,99.0938" style="stroke:#181818;stroke-width:1.0;"/><line style="stroke:#181818;stroke-width:1.0;" x1="639.875" x2="639.875" y1="140.1875" y2="160.1875"/><polygon fill="#181818" points="635.875,150.1875,639.875,160.1875,643.875,150.1875,639.875,154.1875" style="stroke:#181818;stroke-width:1.0;"/><line style="stroke:#181818;stroke-width:1.0;" x1="639.875" x2="639.875" y1="195.2813" y2="215.2813"/><polygon fill="#181818" points="635.875,205.2813,639.875,215.2813,643.875,205.2813,639.875,209.2813" style="stroke:#181818;stroke-width:1.0;"/><line style="stroke:#181818;stroke-width:1.0;" x1="639.875" x2="639.875" y1="250.375" y2="270.375"/><polygon fill="#181818" points="635.875,260.375,639.875,270.375,643.875,260.375,639.875,264.375" style="stroke:#181818;stroke-width:1.0;"/><line style="stroke:#181818;stroke-width:1.0;" x1="639.875" x2="639.875" y1="305.4688" y2="325.4688"/><polygon fill="#181818" points="635.875,315.4688,639.875,325.4688,643.875,315.4688,639.875,319.4688" style="stroke:#181818;stroke-width:1.0;"/><line style="stroke:#181818;stroke-width:1.0;" x1="639.875" x2="639.875" y1="360.5625" y2="380.5625"/><polygon fill="#181818" points="635.875,370.5625,639.875,380.5625,643.875,370.5625,639.875,374.5625" style="stroke:#181818;stroke-width:1.0;"/><line style="stroke:#181818;stroke-width:1.0;" x1="171.5" x2="171.5" y1="608.8438" y2="643.8438"/><polygon fill="#181818" points="167.5,633.8438,171.5,643.8438,175.5,633.8438,171.5,637.8438" style="stroke:#181818;stroke-width:1.0;"/><line style="stroke:#181818;stroke-width:1.0;" x1="529" x2="529" y1="608.8438" y2="643.8438"/><polygon fill="#181818" points="525,633.8438,529,643.8438,533,633.8438,529,637.8438" style="stroke:#181818;stroke-width:1.0;"/><line style="stroke:#181818;stroke-width:1.0;" x1="285.25" x2="171.5" y1="551.75" y2="551.75"/><line style="stroke:#181818;stroke-width:1.0;" x1="171.5" x2="171.5" y1="551.75" y2="573.75"/><polygon fill="#181818" points="167.5,563.75,171.5,573.75,175.5,563.75,171.5,567.75" style="stroke:#181818;stroke-width:1.0;"/><line style="stroke:#181818;stroke-width:1.0;" x1="415.25" x2="529" y1="551.75" y2="551.75"/><line style="stroke:#181818;stroke-width:1.0;" x1="529" x2="529" y1="551.75" y2="573.75"/><polygon fill="#181818" points="525,563.75,529,573.75,533,563.75,529,567.75" style="stroke:#181818;stroke-width:1.0;"/><line style="stroke:#181818;stroke-width:1.0;" x1="350.25" x2="350.25" y1="504.75" y2="539.75"/><polygon fill="#181818" points="346.25,529.75,350.25,539.75,354.25,529.75,350.25,533.75" style="stroke:#181818;stroke-width:1.0;"/><line style="stroke:#181818;stroke-width:1.0;" x1="929.5" x2="929.5" y1="672.6797" y2="692.6797"/><polygon fill="#181818" points="925.5,682.6797,929.5,692.6797,933.5,682.6797,929.5,686.6797" style="stroke:#181818;stroke-width:1.0;"/><line style="stroke:#181818;stroke-width:1.0;" x1="929.5" x2="929.5" y1="612.668" y2="637.5859"/><polygon fill="#181818" points="925.5,627.5859,929.5,637.5859,933.5,627.5859,929.5,631.5859" style="stroke:#181818;stroke-width:1.0;"/><line style="stroke:#181818;stroke-width:1.0;" x1="981.5" x2="1010.5" y1="600.668" y2="600.668"/><polygon fill="#181818" points="1000.5,596.668,1010.5,600.668,1000.5,604.668,1004.5,600.668" style="stroke:#181818;stroke-width:1.0;"/><line style="stroke:#181818;stroke-width:1.0;" x1="929.5" x2="929.5" y1="553.668" y2="588.668"/><polygon fill="#181818" points="925.5,578.668,929.5,588.668,933.5,578.668,929.5,582.668" style="stroke:#181818;stroke-width:1.0;"/><line style="stroke:#181818;stroke-width:1.0;" x1="929.5" x2="929.5" y1="493.6563" y2="518.5742"/><polygon fill="#181818" points="925.5,508.5742,929.5,518.5742,933.5,508.5742,929.5,512.5742" style="stroke:#181818;stroke-width:1.0;"/><line style="stroke:#181818;stroke-width:1.0;" x1="975" x2="998" y1="481.6563" y2="481.6563"/><polygon fill="#181818" points="988,477.6563,998,481.6563,988,485.6563,992,481.6563" style="stroke:#181818;stroke-width:1.0;"/><line style="stroke:#181818;stroke-width:1.0;" x1="595.375" x2="350.25" y1="447.6563" y2="447.6563"/><line style="stroke:#181818;stroke-width:1.0;" x1="350.25" x2="350.25" y1="447.6563" y2="469.6563"/><polygon fill="#181818" points="346.25,459.6563,350.25,469.6563,354.25,459.6563,350.25,463.6563" style="stroke:#181818;stroke-width:1.0;"/><line style="stroke:#181818;stroke-width:1.0;" x1="684.375" x2="929.5" y1="447.6563" y2="447.6563"/><line style="stroke:#181818;stroke-width:1.0;" x1="929.5" x2="929.5" y1="447.6563" y2="469.6563"/><polygon fill="#181818" points="925.5,459.6563,929.5,469.6563,933.5,459.6563,929.5,463.6563" style="stroke:#181818;stroke-width:1.0;"/><line style="stroke:#181818;stroke-width:1.0;" x1="639.875" x2="639.875" y1="415.6563" y2="435.6563"/><polygon fill="#181818" points="635.875,425.6563,639.875,435.6563,643.875,425.6563,639.875,429.6563" style="stroke:#181818;stroke-width:1.0;"/><!--SRC=[bLF1Zjem4BtdAsQrbo2rAcfNhNRtK4602cdR84BRuyfhJuY5OwUsmufs- -yTXm09MWxDmOdoFE-zUHvV2SobHiXMqyNZ-CjZaZwaIxWU3vERoJIwQj79D9bdy_JR0RuTJgUtmoEShTB50PhDFdwu-HH5RYDrnImhmIBtJAyLmfy8OCpuPcrDhKLYbB5zuO0RAz3kiUjXynp_hWh9DngTW_VHtww4G2wTDFfLXRxv2n8zEkTDTS7ieT7BD2y_ZTtaoZo_HCupwwExf42-CRM7n9IbqM-pB8NvA86IIKtfLEO-kilGrnMiq5gM6rj2RD5RYLjqu0li0Cd3V43xHqAy-ru9vlTO0otHcTfoZBcIgFqRucQg1B8dHHMAJYmpMfY7c0Th3hZHkLpNblaGOjw0NkfrlsYk9PL8MYLJydThhLVRB_X1sngByRRzkb2IrKybSU_8Fl22XWN9-wyQdOUjPB1OtaSoXtXHAqLTDi3dGQ3I4E_G3UWqEh8BnUZ_6ZNQHf9rugi88qM0XYzip3ppjOEivfmcwvoMYDkOk-8GCo52R6L9GSEpz4N3JAvThRmZ1TI2ob4vwbwR_wFAcLGepXa3GvZCGAk5pACk-JuULu0ty9NcwfK-JY6CgahjI9XUiZsIHklyN49P8DxllvZGqTPvlptH2JLh3SbQezGJNQoJBdakQQmCL1Qtqj1fqCtns3heqZTzdylqGmdhFm00]--></g></svg>